<svg id="Layer_1" data-name="Layer 1" xmlns="http://www.w3.org/2000/svg" viewBox="0 0 112.95 98.99"><defs><style>.cls-1{fill:#fff;}</style></defs><title>art</title><path class="cls-1" d="M132.22,24.69v3.09a7.51,7.51,0,0,0-.21.94q-1.37,12-2.72,24.08c-1.09,9.56-2.22,19.12-3.24,28.69-.63,6-3.21,9.49-8.34,10.86-.86.22-1.12.56-1.07,1.4a10.18,10.18,0,0,1-2,7c-2.61,3.35-6.11,4.72-10.31,4.71q-36.87,0-73.76,0c-.51,0-1,0-1.54,0a10.2,10.2,0,0,1-6.44-2.78,11.83,11.83,0,0,1-3.3-6.08V37.26c.07-.24.16-.48.21-.73a10.81,10.81,0,0,1,11.07-9.2c1.16.05,2.32,0,3.53,0,.44-3.64,1-7.13,1.27-10.63A11,11,0,0,1,47.26,6.59c2,.25,4,.45,6,.68L75.51,9.78l24.08,2.76c7.7.88,15.4,1.72,23.1,2.66a10.22,10.22,0,0,1,7.94,5.31A29.08,29.08,0,0,1,132.22,24.69ZM24.78,77.77l1-.72C31.41,73,37,68.87,42.65,64.81a12.16,12.16,0,0,1,15.87.75c4.83,4.25,9.64,8.52,14.48,12.76a6.88,6.88,0,0,0,8.29.84q14.63-8.47,29.21-17a1.51,1.51,0,0,0,.66-1.09c0-7.35.08-14.7,0-22a6.17,6.17,0,0,0-6.33-6.15q-37.38,0-74.76,0a4.57,4.57,0,0,0-4.44,2.69,9.28,9.28,0,0,0-.83,3.7c-.06,12.42,0,24.84,0,37.27Zm86.41-9.5c-.47.24-.76.37-1,.52Q97.44,76.16,84.71,83.52c-5.61,3.26-11.16,2.7-16-1.62s-9.52-8.42-14.32-12.59a6.36,6.36,0,0,0-8.14-.41Q35.75,76.52,25.36,84.25a1.59,1.59,0,0,0-.56,1.06c0,3.34-.07,6.69,0,10a4.38,4.38,0,0,0,2.88,4.2,8.57,8.57,0,0,0,3.12.48q36.64,0,73.31,0c.52,0,1,0,1.54-.06a5.63,5.63,0,0,0,5.54-6V68.27ZM116.65,87a4.79,4.79,0,0,0,3.5-3.93c.11-.73.16-1.47.24-2.2l3-25.72c1.06-9.19,2.09-18.39,3.18-27.58.49-4.07-1.44-6.58-5.51-7-3.62-.39-7.23-.82-10.84-1.24L88.55,16.76l-22-2.53C60,13.48,53.49,12.69,47,12a5.38,5.38,0,0,0-6,4.45c-.57,3.58-.9,7.2-1.35,10.93h1.5q31.65,0,63.3,0a14.35,14.35,0,0,1,3.27.33,11.68,11.68,0,0,1,9,11.8q0,23,0,46Z" transform="translate(-19.28 -6.52)"/><path class="cls-1" d="M76.5,64.48A11.51,11.51,0,1,1,88,53,11.54,11.54,0,0,1,76.5,64.48ZM70.45,53a6,6,0,1,0,6-6A6.05,6.05,0,0,0,70.45,53Z" transform="translate(-19.28 -6.52)"/></svg>