<svg id="Layer_1" data-name="Layer 1" xmlns="http://www.w3.org/2000/svg" viewBox="0 0 105 105"><defs><style>.cls-1{fill:#fff;}</style></defs><title>dossier</title><path class="cls-1" d="M128.25,59.28v2c-.22.61-.43,1.22-.65,1.82-4.92,13.3-9.88,26.58-14.74,39.89-1,2.64-2.32,4.66-5.12,5.46H28.17a6.75,6.75,0,0,1-4.92-4.92V41.24a4.52,4.52,0,0,0,.18-.47A8.42,8.42,0,0,1,31.79,34h1.55V27.29H23.25V9c.05,0,.12-.09.14-.15C24.65,5.06,26.8,3.5,30.82,3.5H93.65c4.75,0,7.51,2.76,7.51,7.5V40.71a26.06,26.06,0,0,1,3.18.2,8.34,8.34,0,0,1,6.93,8c.07,1.76,0,3.53,0,5.4h1.25c3.32,0,6.63,0,10,0a5.66,5.66,0,0,1,5.09,3.23A14,14,0,0,1,128.25,59.28ZM68,105.11h37.84c2.21,0,2.79-.41,3.56-2.47l8.35-22.56q3.42-9.21,6.82-18.43c.61-1.65.23-3-1.1-3.6a4.9,4.9,0,0,0-2-.35H45.69c-2.17,0-2.79.43-3.55,2.5Q37,74,31.9,87.82q-2.52,6.77-5,13.54A2.58,2.58,0,0,0,28.41,105a6.23,6.23,0,0,0,1.73.15ZM36.79,64.3l.2,0c.65-1.76,1.3-3.51,2-5.27,1.3-3.5,3.06-4.73,6.77-4.73h52V11c0-2.84-1.22-4-4-4H36.31c.17,1.83.46,3.54.46,5.24q0,25.53,0,51.05ZM26.64,91.51l.23,0c.08-.17.17-.34.24-.52q3.06-8.25,6.1-16.5a4.43,4.43,0,0,0,.2-1.4q0-17.33,0-34.64c0-.36-.05-.72-.07-1-4.12-.58-6.78,1.9-6.76,6,.11,15.64.05,31.29.05,46.93Zm6.78-67.74V11a9.89,9.89,0,0,0-.08-1.33,3.29,3.29,0,0,0-3.08-2.79c-2.09-.14-3.6,1.35-3.61,3.65,0,4.16,0,8.33,0,12.49,0,.23.05.46.07.71Zm74.52,30.5c0-1.62,0-3.18,0-4.74a5.26,5.26,0,0,0-6.69-5.26v10Z" transform="translate(-23.25 -3.5)"/><path class="cls-1" d="M81.53,101.63c1.63-3.26,3.2-6.43,4.82-9.59a1.06,1.06,0,0,1,.78-.47q11.58,0,23.16,0c.06,0,.12.05.28.13-.35.72-.69,1.44-1,2.16-1.2,2.41-2.4,4.83-3.64,7.23a1.3,1.3,0,0,1-.87.62c-7.72,0-15.44,0-23.17,0A1.45,1.45,0,0,1,81.53,101.63ZM105.18,95h-16c-.21,0-.54.06-.62.21-.54,1-1,2-1.61,3.16,5.48,0,10.73,0,16,0a1,1,0,0,0,.72-.4C104.18,97,104.63,96.06,105.18,95Z" transform="translate(-23.25 -3.5)"/><path class="cls-1" d="M94.31,30.54h-54V10.32h54ZM90.92,13.76H43.62v13.4h47.3Z" transform="translate(-23.25 -3.5)"/><path class="cls-1" d="M40.26,44.07V40.84H94.33v3.23Z" transform="translate(-23.25 -3.5)"/><path class="cls-1" d="M40.26,50.84V47.61H84.14v3.23Z" transform="translate(-23.25 -3.5)"/><path class="cls-1" d="M75.72,34.07v3.21H40.25V34.07Z" transform="translate(-23.25 -3.5)"/><path class="cls-1" d="M87.68,47.6h6.65v3.23H87.68Z" transform="translate(-23.25 -3.5)"/></svg>