<svg id="Layer_1" data-name="Layer 1" xmlns="http://www.w3.org/2000/svg" viewBox="0 0 126.7 95.91"><defs><style>.cls-1{fill:#fff;}</style></defs><title>video</title><path class="cls-1" d="M12.4,67.6V44.34c.16-2.54.35-5.08.49-7.63a55.3,55.3,0,0,1,1.74-12.33C16.9,16.5,21.85,11.42,30,9.87A69.81,69.81,0,0,1,40.3,9c9-.36,18-.7,27-.86q25.8-.48,51.54,1.36c9.62.71,16.14,6.26,18.26,15.63a102.44,102.44,0,0,1,1.54,11.74c.27,2.57.35,5.17.51,7.76v23c-.17,2.58-.36,5.16-.49,7.75-.25,5.16-.78,10.26-2.73,15.12A17.77,17.77,0,0,1,122,102a75.87,75.87,0,0,1-10.33,1c-15.52.7-31.06,1.3-46.6.76-10.91-.38-21.83-.77-32.72-1.52-9.55-.65-15.74-6.05-17.87-15.34a102,102,0,0,1-1.53-11.73C12.64,72.61,12.56,70.1,12.4,67.6Zm62,29v-.23c3.54,0,7.09.1,10.63,0q16.56-.56,33.11-1.28c5.42-.24,9.64-2.81,11.46-9a45.56,45.56,0,0,0,1.57-10.36,341.23,341.23,0,0,0,0-39.43A43,43,0,0,0,129.4,25.1a11,11,0,0,0-9.47-8c-4.19-.58-8.45-.78-12.69-1-18.95-.87-37.91-1-56.87-.25-5.85.24-11.7.5-17.53,1-4.93.42-8.74,2.78-10.37,7.67a34,34,0,0,0-1.81,8,313.7,313.7,0,0,0-.3,43.25,41.15,41.15,0,0,0,1.77,11.06c1.37,4,4.07,6.62,8.2,7.38a74.69,74.69,0,0,0,10.55,1.18C52,96,63.21,96.23,74.37,96.58Z" transform="translate(-12.4 -8)"/><path class="cls-1" d="M59.66,54.68c0-4.91,0-9.81,0-14.72,0-4.56,3.93-7,7.92-4.81q13.74,7.45,27.43,15a5.18,5.18,0,0,1-.07,9.33C85.76,64.39,76.6,69.36,67.4,74.26c-3.77,2-7.72-.44-7.74-4.74C59.64,64.57,59.66,59.63,59.66,54.68ZM67.14,66,88,54.77,67.14,43.35Z" transform="translate(-12.4 -8)"/></svg>