<svg id="Layer_1" data-name="Layer 1" xmlns="http://www.w3.org/2000/svg" viewBox="0 0 88.78 89.74"><title>logo_notext</title><path d="M30.23,82.51a41.24,41.24,0,0,0,36.58,4.14c-.24-.57-.22-.59.34-.78.35-.11.69-.25,1.12-.42-.15-.27-.27-.51-.42-.74l-.92-1.5-.35-.43a1.09,1.09,0,0,1-.26-.37,3.51,3.51,0,0,1-.21-1.73c.17-.66.26-1.34.37-2a.67.67,0,0,0,0-.2c-.11-.46-.21-.92-.33-1.44-.22.15-.48.23-.63-.13s-.17-.51.15-.75a.92.92,0,0,0,.35-1,1.76,1.76,0,0,1,.5-1.7c.29-.34.3-.35-.09-.58l-.12,0a1.76,1.76,0,0,1-.12-1.45,1.11,1.11,0,0,1,.92-.55.79.79,0,0,1,.83.76.7.7,0,0,1-.06.35.77.77,0,0,0,.27.91,4,4,0,0,1,.54.92c.08.16.06.38.17.49a2.19,2.19,0,0,1,.57,1.4c0,.6.08.59-.46.84l-.26.14a4.77,4.77,0,0,0,.19.85,2.24,2.24,0,0,1-.11,1.91,5.29,5.29,0,0,0-.32.92c-.13.47-.23.92-.35,1.43a5.63,5.63,0,0,1,2.14,1.08,1.07,1.07,0,0,0,.91.25c.62-.12.86.29.66.92a1.66,1.66,0,0,1-.09.37,2,2,0,0,0,.1.21l1.22-.63V82.78l-1.8-.21a.92.92,0,0,1-.33,0c-.17-.07-.41-.14-.46-.27a.61.61,0,0,1,.15-.52A6.13,6.13,0,0,1,73,80l-.36-.83a5.26,5.26,0,0,1-3.41-.24l.19-.63c.68-.19.68-.19,1,.55l1.18-.2a2,2,0,0,1-.21-.57,1.66,1.66,0,0,1,.11-.58.25.25,0,0,1,.06-.19c.23-.73.21-1.3-1-1.48a1.81,1.81,0,0,1-.12-1.69c.08-.33.41-.4.69-.42a3.29,3.29,0,0,0,1.28-.26.43.43,0,0,1,.59.16l0,.06a3.89,3.89,0,0,1,.33,1.05,2.3,2.3,0,0,0,.84,1.91.68.68,0,0,1,.23.51,4.49,4.49,0,0,1,0,1.1.76.76,0,0,0,.23.91,2.08,2.08,0,0,1,.43.59,1.42,1.42,0,0,1,0,1.51c-.21.31-.36.65-.55,1l.76.35c3.59-1.83,9.76-7.9,12.23-12L57.36,30.17c-3.06,12-6.07,23.95-9.09,35.9H63.22c-.18-.25-.31-.44-.46-.62Q57.92,59.3,53,53.15a1.18,1.18,0,0,1-.27-1.25c.18-.52.29-1.06.44-1.6.41.26,13.86,16.89,14.38,17.65-.44.13-21.09.17-22,0,3.6-14.18,7.19-28.34,10.82-42.65L88.51,68.75a42,42,0,0,0,4.59-11,17.44,17.44,0,0,1,1.23,1.34.81.81,0,0,1,0,.61c-.62,1.72-1.17,3.49-1.91,5.16A43.28,43.28,0,0,1,75.85,84.14l-.54.36c.21.59.44.84,1.42,1.56a47.2,47.2,0,0,0,5-3.63v2.19c0,.19-.27.38-.45.53a47.1,47.1,0,0,1-20.86,9.07,44.37,44.37,0,0,1-10.92.52A46.4,46.4,0,0,1,19.89,81.38,46.33,46.33,0,0,1,6.49,56.66a44.74,44.74,0,0,1-.73-12.49A46.71,46.71,0,0,1,21.27,12.68c.64-.58,1.32-1.11,2-1.69a.69.69,0,0,1,.79-.14l1.61.58c-.21.18-.36.33-.52.45a45.33,45.33,0,0,0-17,28.5,43.63,43.63,0,0,0-.48,10.71A45.34,45.34,0,0,0,48.93,92.81a43.66,43.66,0,0,0,6.57.08A44.63,44.63,0,0,0,74.68,87.3l.22-.16a1.41,1.41,0,0,1-.29-.18c-.06-.08-.14-.2-.11-.27a.32.32,0,0,1,.24-.17.81.81,0,0,0,.72-.26c-.06-.61-.54-.92-1-1.24l-.58.3a43.33,43.33,0,0,1-51.7-7A42.47,42.47,0,0,1,10.08,55.62a41.12,41.12,0,0,1-.74-9.84,43.62,43.62,0,0,1,33.2-40.5,1.64,1.64,0,0,1,2.09.64,5.23,5.23,0,0,0,.48.56,41.61,41.61,0,0,0-26,16.46,40.44,40.44,0,0,0-7.87,20.84A41.49,41.49,0,0,0,28.38,81.25c.07-.21.16-.4.21-.6q4.9-16.43,9.82-32.85c1.09-3.67,2.19-7.34,3.27-11a4.8,4.8,0,0,0,.18-1.3V30.84a1.77,1.77,0,0,1,0-.46c0-.09.16-.14.38-.31v5.36A2.06,2.06,0,0,0,43,37.1c0-.21.05-.41.06-.62V34.64c0-.19,0-.43.36-.39V37a1.74,1.74,0,0,0,.71,1.61c0-.2,0-.35,0-.51V33.38a1.85,1.85,0,0,1,0-.47c0-.08.16-.13.37-.29v6A1.72,1.72,0,0,0,45,39.8c1.57,2,3.13,4.06,4.71,6.09A1,1,0,0,1,50,47c-.19.51-.28,1.05-.46,1.7l-6.69-8.4C38.61,54.47,34.42,68.5,30.23,82.51Zm40.36,2.62V84.3a.63.63,0,0,0-.52-.73l-1.73-.47c.23.76.41,1.41.62,2a.52.52,0,0,0,.59.44.48.48,0,0,0,.21-.07l.8-.38Zm2.68-3.76-.91.44.91.31Zm.43-3.25c.2-.81.17-.91-.23-1.15Zm-1.09-3h-.13l-.14.52.58.27Z" transform="translate(-5.61 -5.13)"/><path d="M84.58,21.87a6.15,6.15,0,1,1,.06,0Z" transform="translate(-5.61 -5.13)"/></svg>