<svg id="Layer_1" data-name="Layer 1" xmlns="http://www.w3.org/2000/svg" viewBox="0 0 96.77 97.77"><defs><style>.cls-1{fill:#fff;}</style></defs><title>Logo TMB ss text</title><path d="M36.27,91.7a44.91,44.91,0,0,0,39.87,4.51c-.26-.62-.24-.64.37-.84.39-.12.76-.28,1.23-.46-.17-.3-.3-.56-.46-.81l-1-1.64L75.89,92c-.1-.13-.25-.26-.28-.41a3.85,3.85,0,0,1-.23-1.88c.19-.72.28-1.46.41-2.19a.81.81,0,0,0,0-.22c-.12-.5-.23-1-.37-1.57-.24.16-.52.25-.68-.14s-.19-.56.16-.82a1,1,0,0,0,.38-1.14,1.91,1.91,0,0,1,.55-1.85c.31-.37.32-.38-.1-.63a.75.75,0,0,1-.13-.06,1.91,1.91,0,0,1-.13-1.58,1.24,1.24,0,0,1,1-.6.87.87,0,0,1,.84,1.21.85.85,0,0,0,.29,1,3.93,3.93,0,0,1,.59,1c.09.17.07.41.19.53A2.39,2.39,0,0,1,79,84.18c.06.65.09.64-.5.92l-.28.15a5.15,5.15,0,0,0,.2.93,2.41,2.41,0,0,1-.12,2.08,6,6,0,0,0-.35,1c-.14.51-.25,1-.38,1.56A6.09,6.09,0,0,1,79.9,92a1.22,1.22,0,0,0,1,.27c.67-.13.94.31.72,1,0,.13-.07.27-.1.41a1.27,1.27,0,0,0,.11.22l1.33-.68V92L81,91.77a1.43,1.43,0,0,1-.36,0c-.19-.08-.45-.15-.51-.3a.67.67,0,0,1,.17-.56,6.6,6.6,0,0,1,2.54-2l-.39-.9a5.71,5.71,0,0,1-3.72-.27l.21-.68c.74-.21.74-.21,1.12.6l1.28-.22a2.17,2.17,0,0,1-.23-.62,2,2,0,0,1,.12-.63c0-.07,0-.14.07-.21.25-.8.23-1.42-1.09-1.61a2,2,0,0,1-.13-1.85c.09-.36.45-.43.75-.46a3.4,3.4,0,0,0,1.4-.28.47.47,0,0,1,.67.24,4,4,0,0,1,.36,1.15,2.54,2.54,0,0,0,.92,2.08.77.77,0,0,1,.25.56A4.91,4.91,0,0,1,84.37,87a.84.84,0,0,0,.26,1,2.33,2.33,0,0,1,.46.64,1.52,1.52,0,0,1,0,1.64c-.22.34-.39.71-.6,1.1l.83.38c3.92-2,10.64-8.61,13.34-13.12l-32.82-44c-3.33,13.12-6.61,26.11-9.91,39.14H72.23c-.2-.27-.34-.48-.5-.68q-5.28-6.7-10.6-13.4a1.31,1.31,0,0,1-.29-1.37c.2-.56.32-1.15.48-1.74C61.77,56.87,76.43,75,77,75.83c-.49.14-23,.19-24,0,3.92-15.46,7.84-30.9,11.8-46.5l35,47.37a45.56,45.56,0,0,0,5-11.95,18.85,18.85,0,0,1,1.34,1.46.82.82,0,0,1,0,.67c-.67,1.88-1.27,3.8-2.08,5.62A47.13,47.13,0,0,1,86,93.48l-.59.39c.23.65.48.92,1.55,1.7a51,51,0,0,0,5.48-3.95c0,.87,0,1.63,0,2.38,0,.21-.29.42-.49.58a50.32,50.32,0,0,1-10,6,51.17,51.17,0,0,1-12.74,3.89,48.92,48.92,0,0,1-11.9.57A50.57,50.57,0,0,1,25,90.47,50.41,50.41,0,0,1,10.39,63.52a48.59,48.59,0,0,1-.8-13.61A50.92,50.92,0,0,1,26.5,15.58c.7-.63,1.44-1.21,2.14-1.84a.75.75,0,0,1,.86-.16c.54.21,1.08.39,1.75.63-.23.2-.39.36-.56.5A49.38,49.38,0,0,0,12.13,45.77a47.12,47.12,0,0,0-.52,11.68A48.8,48.8,0,0,0,27,89.66a49.15,49.15,0,0,0,29.65,13.27,47.56,47.56,0,0,0,7.16.09,48.71,48.71,0,0,0,20.91-6.1,2.73,2.73,0,0,0,.24-.17,1.38,1.38,0,0,1-.31-.2c-.07-.08-.15-.21-.12-.29a.34.34,0,0,1,.26-.19.85.85,0,0,0,.78-.28c-.06-.67-.58-1-1.08-1.35l-.63.33A47.23,47.23,0,0,1,27.5,87.09a46.24,46.24,0,0,1-13.2-24.7,44.89,44.89,0,0,1-.81-10.73A47.55,47.55,0,0,1,49.69,7.51a1.8,1.8,0,0,1,2.28.7,5.9,5.9,0,0,0,.52.61,45.4,45.4,0,0,0-28.4,17.94,44.11,44.11,0,0,0-8.58,22.72A45.24,45.24,0,0,0,34.25,90.33c.08-.23.17-.44.23-.66q5.35-17.9,10.7-35.81c1.19-4,2.39-8,3.57-12a5.6,5.6,0,0,0,.2-1.42c0-1.69,0-3.38,0-5.07a1.67,1.67,0,0,1,0-.5c0-.09.17-.15.41-.34v.85c0,1.67,0,3.33,0,5a2.25,2.25,0,0,0,.84,1.82,6.51,6.51,0,0,0,.06-.68c0-.67,0-1.35,0-2,0-.21,0-.47.4-.43,0,.22,0,.45,0,.68,0,.77,0,1.55,0,2.32a1.9,1.9,0,0,0,.77,1.76c0-.22.06-.39.06-.56V38.14a1.73,1.73,0,0,1,0-.51c0-.09.17-.14.4-.31v.92c0,1.89,0,3.77,0,5.65a1.83,1.83,0,0,0,.43,1.25c1.72,2.21,3.42,4.43,5.14,6.64A1.12,1.12,0,0,1,57.8,53c-.21.56-.31,1.15-.5,1.86L50,45.7C45.4,61.13,40.83,76.43,36.27,91.7Zm44,2.86c0-.34,0-.63,0-.91a.69.69,0,0,0-.57-.79l-1.89-.52c.25.83.45,1.54.68,2.23a.57.57,0,0,0,.87.4C79.62,94.85,79.9,94.71,80.23,94.56Zm2.92-4.1-1,.48,1,.34Zm.47-3.54c.21-.89.18-1-.26-1.26Zm-1.19-3.25-.14,0-.16.56.63.3Z" transform="translate(-9.42 -7.38)"/><path d="M95.52,25.6a6.71,6.71,0,1,1,6.73-6.71A6.69,6.69,0,0,1,95.52,25.6Z" transform="translate(-9.42 -7.38)"/><path class="cls-1" d="M80.23,94.56c-.33.15-.61.29-.9.41a.57.57,0,0,1-.87-.4c-.23-.69-.43-1.4-.68-2.23l1.89.52a.69.69,0,0,1,.57.79C80.22,93.93,80.23,94.22,80.23,94.56Z" transform="translate(-9.42 -7.38)"/><path class="cls-1" d="M83.15,90.46l-.07.82-1-.34Z" transform="translate(-9.42 -7.38)"/><path class="cls-1" d="M83.62,86.92l-.26-1.26C83.8,85.9,83.83,86,83.62,86.92Z" transform="translate(-9.42 -7.38)"/><path class="cls-1" d="M82.43,83.67l.33.88-.63-.3.16-.56Z" transform="translate(-9.42 -7.38)"/></svg>