<svg id="Layer_1" data-name="Layer 1" xmlns="http://www.w3.org/2000/svg" viewBox="0 0 205.97 165.62"><defs><style>.cls-1{fill:#fff;}</style></defs><title>Logo Final TMB</title><path d="M17.15,156.13h6.3a7.56,7.56,0,0,1,4.64,1.55,4.93,4.93,0,0,1,1.66,6.11c-.06.13-.11.27-.17.43s.14.13.22.18a6.21,6.21,0,0,1-.42,10.82,7.3,7.3,0,0,1-3.54.89H17.15Zm5.1,11.31v3.88h.69c.89,0,1.78,0,2.67,0a2.78,2.78,0,0,0,1.26-.48,1.73,1.73,0,0,0,.38-2.49,2,2,0,0,0-1.46-.86C24.63,167.4,23.45,167.44,22.25,167.44Zm0-3.68a14.77,14.77,0,0,0,1.81-.48,1.07,1.07,0,0,0,.65-1.18,1.2,1.2,0,0,0-.87-1,3.39,3.39,0,0,0-1.59-.08Z" transform="translate(-17.15 -10.79)"/><path d="M223.12,176.12l-3.83,0c-3.06,0-6.12,0-9.18,0h-.83v-20a3.55,3.55,0,0,1,.47-.08h12.94c.14,0,.29,0,.43,0v4.93l-8.38,0a.79.79,0,0,0-.26.08v2.55H221a24.7,24.7,0,0,1-.08,5H214.5v2.61h7.85a6.76,6.76,0,0,1,.77.1Z" transform="translate(-17.15 -10.79)"/><path d="M70,176.41c-.65-.15-1.32-.26-2-.45A8,8,0,0,1,62,169.47a7.62,7.62,0,0,1-.1-1.51q0-5.61,0-11.22c0-.17,0-.34,0-.55h4.93V157c0,3.5.09,7,0,10.5a3.93,3.93,0,0,0,4.74,3.84,4.5,4.5,0,0,0,1.86-.74,3.23,3.23,0,0,0,1.5-2.8c0-3.55,0-7.1,0-10.65v-.91h4.94c0,.25,0,.5,0,.76,0,3.69,0,7.38,0,11.07A8.15,8.15,0,0,1,73.73,176c-.65.17-1.31.3-2,.45Z" transform="translate(-17.15 -10.79)"/><path d="M17.15,127.6H33v3.16H26.76c-.07.87,0,1.71,0,2.54s0,1.69,0,2.54v15.29h-3.2c0-1.69,0-3.37,0-5s0-3.38,0-5.07V130.78H17.15Z" transform="translate(-17.15 -10.79)"/><path d="M223.12,130.78H216.9v20.37c-1.09,0-2.11,0-3.22,0V130.8h-6.3c-.06-1.09,0-2.11,0-3.2h15.77Z" transform="translate(-17.15 -10.79)"/><path class="cls-1" d="M223.12,171.34a6.76,6.76,0,0,0-.77-.1H214.5v-2.61H221a24.7,24.7,0,0,0,.08-5h-6.56v-2.55a.79.79,0,0,1,.26-.08l8.38,0Z" transform="translate(-17.15 -10.79)"/><path d="M96.89,95.11a44.91,44.91,0,0,0,39.87,4.51c-.26-.62-.25-.63.37-.83.39-.13.76-.29,1.23-.47-.17-.29-.31-.56-.46-.81l-1.05-1.64c-.11-.16-.23-.31-.35-.46s-.25-.27-.28-.42a4,4,0,0,1-.22-1.88c.19-.71.28-1.46.41-2.19a.74.74,0,0,0,0-.21L136,89.13c-.24.16-.52.25-.68-.13s-.19-.57.16-.82A1,1,0,0,0,135.9,87a1.91,1.91,0,0,1,.55-1.85c.31-.37.32-.38-.1-.63a.52.52,0,0,1-.13-.06,1.91,1.91,0,0,1-.13-1.58,1.24,1.24,0,0,1,1-.6.87.87,0,0,1,.84,1.21.85.85,0,0,0,.29,1,3.93,3.93,0,0,1,.59,1c.09.17.07.41.19.54a2.29,2.29,0,0,1,.56,1.52c.07.64.1.63-.49.91l-.28.15a6.14,6.14,0,0,0,.19.93,2.41,2.41,0,0,1-.11,2.08,6,6,0,0,0-.35,1c-.14.51-.25,1-.38,1.56a6,6,0,0,1,2.37,1.13,1.26,1.26,0,0,0,1,.26c.67-.13.94.31.72,1,0,.13-.07.27-.1.41s0,.08.11.22l1.33-.68V95.43l-1.92-.25a1.4,1.4,0,0,1-.36,0c-.19-.08-.45-.15-.51-.3a.64.64,0,0,1,.17-.56,6.6,6.6,0,0,1,2.54-2l-.4-.9a5.68,5.68,0,0,1-3.71-.27l.2-.68c.75-.21.75-.21,1.13.6l1.27-.22a2.45,2.45,0,0,1-.22-.62,2,2,0,0,1,.12-.63c0-.07,0-.14.07-.21.25-.8.23-1.42-1.09-1.6a2,2,0,0,1-.13-1.86c.09-.36.45-.43.75-.45a3.58,3.58,0,0,0,1.4-.29.47.47,0,0,1,.67.24,4.08,4.08,0,0,1,.35,1.16,2.58,2.58,0,0,0,.93,2.08.73.73,0,0,1,.25.55,4.4,4.4,0,0,1-.09,1.15.86.86,0,0,0,.27,1,2.33,2.33,0,0,1,.46.64,1.54,1.54,0,0,1-.05,1.65c-.22.34-.39.71-.6,1.09l.83.39c3.92-2,10.64-8.62,13.34-13.13L126.41,38c-3.33,13.12-6.61,26.11-9.91,39.15h16.35c-.2-.28-.34-.49-.5-.69q-5.3-6.7-10.6-13.4a1.31,1.31,0,0,1-.29-1.37c.2-.56.32-1.15.47-1.74.46.31,15.11,18.4,15.64,19.27-.49.14-23,.19-24,0l11.8-46.5,35,47.38a45.63,45.63,0,0,0,5-12,18.85,18.85,0,0,1,1.34,1.46.82.82,0,0,1,0,.67c-.67,1.88-1.27,3.8-2.08,5.62a47.19,47.19,0,0,1-18,20.94l-.6.39c.23.65.49.92,1.56,1.7a51,51,0,0,0,5.48-4c0,.87,0,1.63,0,2.38,0,.21-.28.43-.48.58a50.32,50.32,0,0,1-10,6,50.88,50.88,0,0,1-12.74,3.89,48.92,48.92,0,0,1-11.9.57,51.55,51.55,0,0,1-47-41.5,48.57,48.57,0,0,1-.8-13.61A50.88,50.88,0,0,1,87.12,19c.7-.64,1.44-1.22,2.14-1.84a.75.75,0,0,1,.86-.17c.53.21,1.08.4,1.75.64l-.56.49A49.38,49.38,0,0,0,72.75,49.18a47.12,47.12,0,0,0-.52,11.68A48.8,48.8,0,0,0,87.64,93.07a48.94,48.94,0,0,0,29.65,13.27,48.91,48.91,0,0,0,28.07-6c.08,0,.15-.12.24-.18a1.38,1.38,0,0,1-.31-.2c-.07-.07-.15-.21-.12-.29a.34.34,0,0,1,.26-.19.87.87,0,0,0,.78-.27c-.06-.68-.58-1-1.08-1.36l-.63.33A47.36,47.36,0,0,1,74.92,65.81a45,45,0,0,1-.81-10.73,47.55,47.55,0,0,1,36.2-44.16,1.8,1.8,0,0,1,2.28.7,4.87,4.87,0,0,0,.52.61,45.44,45.44,0,0,0-28.4,17.94A44.11,44.11,0,0,0,76.13,52.9,45.21,45.21,0,0,0,94.87,93.74c.08-.23.17-.44.23-.65q5.36-17.91,10.7-35.82c1.19-4,2.39-8,3.56-12a5.19,5.19,0,0,0,.21-1.42c0-1.69,0-3.38,0-5.07a1.68,1.68,0,0,1,0-.5c0-.09.17-.15.41-.34v.85c0,1.67,0,3.34,0,5a2.22,2.22,0,0,0,.84,1.82,6.34,6.34,0,0,0,.06-.67c0-.68,0-1.36,0-2,0-.21,0-.47.4-.42,0,.21,0,.44,0,.67,0,.77,0,1.55,0,2.32a1.88,1.88,0,0,0,.77,1.76c0-.21.06-.39.06-.56V41.55a1.64,1.64,0,0,1,0-.5c0-.1.17-.15.4-.32v.93c0,1.88,0,3.76,0,5.64a1.83,1.83,0,0,0,.43,1.25c1.72,2.21,3.42,4.43,5.14,6.64a1.1,1.1,0,0,1,.25,1.18c-.2.56-.3,1.15-.49,1.86l-7.3-9.12C106,64.54,101.45,79.84,96.89,95.11Zm44,2.86c0-.34,0-.63,0-.91a.69.69,0,0,0-.57-.79l-1.89-.51c.25.82.45,1.53.68,2.22a.56.56,0,0,0,.87.4C140.24,98.26,140.52,98.12,140.85,98Zm2.92-4.1-1,.49.95.33Zm.47-3.54c.21-.89.18-1-.26-1.26Zm-1.19-3.25-.14,0-.16.57.62.3Z" transform="translate(-17.15 -10.79)"/><path d="M103.5,159.42l-3.7,3.5-.63-.53a6.34,6.34,0,0,0-8.59.51,4.67,4.67,0,0,0,0,6.53,6.45,6.45,0,0,0,8.89.25,10.43,10.43,0,0,0,.71-.77H94.55v-4.35c.5-.15,10.7-.19,11.62,0a12.82,12.82,0,0,1,0,2.7,10.34,10.34,0,0,1-9,8.92,11.79,11.79,0,0,1-8.62-1.82,9.36,9.36,0,0,1-4.4-8.4,9.67,9.67,0,0,1,5.46-8.61,11.37,11.37,0,0,1,7-1.22,11.88,11.88,0,0,1,6.21,2.69C103,159,103.23,159.17,103.5,159.42Z" transform="translate(-17.15 -10.79)"/><path d="M46.74,156a10.76,10.76,0,0,1,8.71,4,9.74,9.74,0,0,1-.83,13.24,10.79,10.79,0,0,1-7.87,3.08,10.6,10.6,0,0,1-8.81-4.64,9.78,9.78,0,0,1,1.7-13,10.81,10.81,0,0,1,5.83-2.65C46,156,46.48,156,46.74,156Zm5.78,10.16c0-.21,0-.43,0-.65a2.07,2.07,0,0,0-.08-.42,5.44,5.44,0,0,0-3.78-3.86,5.59,5.59,0,0,0-6.79,2.87,4.22,4.22,0,0,0,.22,4.48,5.73,5.73,0,0,0,4.24,2.7,5.9,5.9,0,0,0,5.7-3A4.27,4.27,0,0,0,52.52,166.14Z" transform="translate(-17.15 -10.79)"/><path d="M137.64,176.1h-5V156.18c.21,0,.42,0,.63,0,2.3,0,4.59,0,6.88,0a10.92,10.92,0,0,1,3.13.46,6.41,6.41,0,0,1,4.66,4.71,6.86,6.86,0,0,1-1.2,6,5.5,5.5,0,0,1-2.05,1.68l4.77,7.1c-.28,0-.46,0-.65,0-1.59,0-3.18,0-4.77,0a1,1,0,0,1-1-.48c-1.57-2.09-3.15-4.15-4.74-6.22a2.71,2.71,0,0,0-.74-.73Zm0-10.53c1.15,0,2.23.05,3.3,0a2.46,2.46,0,0,0,1.22-.55,2,2,0,0,0,.82-2,2.07,2.07,0,0,0-1.47-1.63,12.52,12.52,0,0,0-3.87-.27Z" transform="translate(-17.15 -10.79)"/><path d="M204,176.06a1.77,1.77,0,0,1-1.8-.52c-3.41-3.1-6.86-6.16-10.3-9.23l-.66-.56v10.33h-5.08V156.16a1.61,1.61,0,0,1,1.6.38c3.52,3.19,7.08,6.35,10.62,9.52l.46.4a7.09,7.09,0,0,0,.08-1.76c0-.55,0-1.11,0-1.66v-6.9H204Z" transform="translate(-17.15 -10.79)"/><path d="M158.37,176.1h-5c-.14-.56-.19-18.74-.06-19.93a1.45,1.45,0,0,1,1.55.36q5.16,4.65,10.36,9.28l.81.7V156.14h5.07v19.93a1.77,1.77,0,0,1-1.71-.46c-3.37-3.06-6.78-6.09-10.18-9.14l-.83-.73c0,.79,0,1.45,0,2.1s0,1.36,0,2v6.23Z" transform="translate(-17.15 -10.79)"/><path d="M128.8,138.16v13h-3.06c-.16-.52-.22-22.38,0-23.71.85,1.19,1.56,2.35,2.3,3.47l2.3,3.52,2.25,3.45,2.3,3.51,2.3,3.52c3.82-5.84,7.59-11.62,11.37-17.39l.12,0v23.58h-3.15c0-1.45,0-2.89,0-4.33v-8.66c-.37.08-.43.4-.57.61q-3.65,5.56-7.27,11.15c-.14.22-.3.44-.5.73L129,138.11Z" transform="translate(-17.15 -10.79)"/><path d="M166.05,127.41c6.12-.24,12,5.23,12,12a12,12,0,1,1-24-.1C154.05,132.82,159.66,127.17,166.05,127.41Zm0,20.65a8.79,8.79,0,0,0,8.75-8.64,8.74,8.74,0,1,0-17.48-.08A8.76,8.76,0,0,0,166,148.06Z" transform="translate(-17.15 -10.79)"/><path d="M41.66,151.14H38.54c-.15-.56-.21-22.08-.07-23.49a4.71,4.71,0,0,1,.54-.05c2.37,0,4.73,0,7.09,0A8.18,8.18,0,0,1,53,131.37a5.38,5.38,0,0,1,.88,2.35,8.32,8.32,0,0,1-1.22,6.08,5.54,5.54,0,0,1-2.58,2.13c-.4.15-.8.32-1.25.51l5.58,8.68c-.28,0-.46,0-.64,0-.9,0-1.79,0-2.68,0a1,1,0,0,1-1-.54c-1.5-2.34-3-4.65-4.53-7l-.48-.71H41.66Zm0-11.42c1.49,0,2.91,0,4.33,0a4.31,4.31,0,0,0,3.85-2,4.62,4.62,0,0,0-.21-5.33,4.8,4.8,0,0,0-3.5-1.63c-1.39-.08-2.79,0-4.19,0a2,2,0,0,0-.28.06Z" transform="translate(-17.15 -10.79)"/><path d="M198.77,143.36V127.55c1.08-.06,2.1,0,3.17,0v24c-1.13-1.09-2.09-2.18-3.08-3.23s-2-2.15-3-3.22l-3-3.22-3-3.22c-1-1.07-2-2.13-3.09-3.18-.09.87-.07,1.72-.08,2.57v13.13h-3.08c-.16-.52-.24-21.62-.08-23.65.3,0,.43.28.59.46l11.88,12.48c.8.84,1.59,1.68,2.39,2.51C198.43,143.08,198.56,143.17,198.77,143.36Z" transform="translate(-17.15 -10.79)"/><path d="M117.51,156.16h1.2c3.22,6.61,6.43,13.24,9.68,19.93H123l-1.48-3h-6.84l-1.48,3h-5.37Zm.61,10.34L116.91,169h2.41Z" transform="translate(-17.15 -10.79)"/><path d="M69,127.3c3.41,8,6.75,15.87,10.14,23.81a10.38,10.38,0,0,1-1.73.06H75.72L74,147.32H64c-.49,1.08-1,2.14-1.45,3.23a.85.85,0,0,1-1,.64c-.7-.05-1.4,0-2.1,0a6.29,6.29,0,0,1-.65,0Zm3.78,17.36c-1.37-3.09-2.37-6.21-3.71-9.21h-.16l-3.66,9.2Z" transform="translate(-17.15 -10.79)"/><path d="M156.14,29a6.71,6.71,0,1,1,6.73-6.71A6.68,6.68,0,0,1,156.14,29Z" transform="translate(-17.15 -10.79)"/><path d="M107.47,148v3.11H94.11V127.65h3.13V148c.88,0,1.71,0,2.55,0h7.68Z" transform="translate(-17.15 -10.79)"/><path d="M176.22,156.18h4.85V176a29,29,0,0,1-4.85.06Z" transform="translate(-17.15 -10.79)"/><path d="M84.54,127.63h3c.15.54.17,22.74,0,23.5h-3C84.46,150.55,84.39,129.88,84.54,127.63Z" transform="translate(-17.15 -10.79)"/><path class="cls-1" d="M140.85,98c-.33.15-.61.29-.9.41a.56.56,0,0,1-.87-.4c-.23-.69-.43-1.4-.68-2.22l1.89.51a.69.69,0,0,1,.57.79C140.84,97.34,140.85,97.63,140.85,98Z" transform="translate(-17.15 -10.79)"/><path class="cls-1" d="M143.77,93.87l-.07.82-.95-.33Z" transform="translate(-17.15 -10.79)"/><path class="cls-1" d="M144.24,90.33,144,89.07C144.42,89.32,144.45,89.44,144.24,90.33Z" transform="translate(-17.15 -10.79)"/><path class="cls-1" d="M143.05,87.08l.32.89-.62-.3.16-.57Z" transform="translate(-17.15 -10.79)"/></svg>