<?xml version="1.0" standalone="no"?>
<!DOCTYPE svg PUBLIC "-//W3C//DTD SVG 20010904//EN"
 "http://www.w3.org/TR/2001/REC-SVG-20010904/DTD/svg10.dtd">
<svg version="1.0" xmlns="http://www.w3.org/2000/svg"
 width="700.000000pt" height="700.000000pt" viewBox="0 0 700.000000 700.000000"
 preserveAspectRatio="xMidYMid meet">
<metadata>
Created by potrace 1.11, written by Peter Selinger 2001-2013
</metadata>
<g transform="translate(0.000000,700.000000) scale(0.100000,-0.100000)"
fill="#000000" stroke="none">
<path d="M2948 6815 c-3 -3 -14 -7 -24 -10 -35 -7 -231 -64 -255 -74 -13 -5
-51 -19 -84 -32 -432 -161 -812 -405 -1140 -734 -222 -221 -350 -385 -508
-647 -44 -72 -177 -330 -177 -342 0 -3 -11 -29 -24 -58 -90 -198 -196 -596
-221 -824 -4 -32 -8 -70 -11 -84 -21 -126 -21 -535 1 -671 2 -13 7 -51 11 -84
4 -33 8 -62 9 -65 0 -3 4 -26 8 -51 13 -80 18 -102 43 -209 176 -738 605
-1378 1236 -1843 332 -245 730 -427 1148 -526 147 -35 164 -38 330 -61 267
-38 677 -31 930 16 14 2 41 7 60 10 19 3 43 7 52 10 10 3 30 7 45 10 206 35
574 169 821 300 57 30 109 54 117 54 7 0 27 -17 45 -37 l33 -37 -23 -18 c-12
-10 -26 -15 -31 -12 -15 9 -22 -25 -9 -40 9 -12 -17 -28 -152 -95 -252 -123
-542 -226 -753 -267 -11 -2 -31 -6 -45 -9 -47 -10 -75 -15 -110 -20 -19 -3
-48 -7 -65 -10 -82 -14 -152 -21 -285 -30 -98 -7 -366 -7 -440 0 -156 14 -221
21 -300 35 -30 5 -71 12 -90 15 -173 29 -413 98 -610 177 -1009 402 -1749
1242 -2020 2293 -21 83 -41 170 -45 195 -3 25 -10 63 -15 85 -4 22 -11 69 -15
105 -4 36 -9 73 -11 83 -8 44 -18 234 -17 347 0 200 5 276 29 455 95 723 436
1410 955 1925 75 74 184 173 242 220 58 47 106 89 106 93 1 4 -7 10 -16 13
-10 3 -39 14 -65 24 -54 21 -67 17 -150 -52 -174 -145 -354 -330 -499 -513
-275 -348 -479 -745 -608 -1184 -33 -109 -96 -408 -106 -501 -4 -30 -8 -66
-10 -80 -25 -179 -25 -570 -1 -775 12 -102 20 -151 37 -240 11 -55 22 -111 25
-125 14 -73 60 -240 98 -355 171 -514 460 -977 849 -1361 296 -292 551 -478
893 -651 484 -246 1000 -370 1554 -375 107 -1 331 9 371 17 10 2 44 6 76 10
32 3 65 8 73 10 8 2 32 6 53 9 20 3 54 9 75 12 76 11 324 75 444 115 359 119
686 288 996 516 l72 53 0 85 c0 47 -2 85 -5 85 -2 0 -47 -33 -99 -74 -51 -40
-132 -99 -180 -130 l-86 -58 -40 32 c-39 31 -60 58 -60 79 0 6 33 31 73 57
506 329 932 828 1176 1379 75 168 162 421 153 444 -7 19 -78 101 -87 101 -2 0
-12 -26 -21 -57 -53 -190 -147 -425 -238 -598 -64 -122 -79 -146 -88 -143 -6
3 -162 213 -1168 1575 -239 323 -437 590 -440 593 -3 3 -17 21 -30 40 -14 19
-89 123 -169 230 -79 107 -189 256 -244 330 -55 74 -114 154 -131 177 -17 23
-66 90 -110 148 -43 58 -81 103 -85 100 -5 -6 -34 -113 -47 -175 -3 -14 -10
-43 -16 -65 -16 -56 -16 -58 -21 -80 -6 -25 -204 -807 -327 -1290 -51 -198
-93 -367 -95 -375 -2 -8 -42 -168 -90 -355 -154 -602 -203 -800 -199 -805 6
-6 1472 -6 1556 0 l68 5 -258 320 c-264 328 -428 531 -466 575 -17 21 -88 107
-166 204 -8 10 -20 23 -25 30 -6 6 -39 46 -75 89 -35 42 -68 77 -72 77 -4 0
-10 -12 -14 -27 -3 -16 -10 -41 -15 -57 -20 -64 -11 -93 58 -176 7 -8 74 -91
148 -185 75 -93 141 -177 148 -185 7 -8 97 -123 201 -255 104 -132 196 -248
204 -257 14 -17 -12 -18 -540 -18 l-556 0 8 33 c13 54 337 1337 400 1582 32
127 104 410 160 630 56 220 104 402 106 404 2 2 5 2 7 0 11 -15 451 -607 460
-619 7 -8 37 -49 68 -90 31 -41 236 -316 455 -610 220 -294 526 -704 679 -910
154 -206 283 -379 288 -385 8 -10 224 -300 258 -346 l19 -27 -63 -88 c-61 -87
-75 -105 -147 -188 -200 -232 -493 -495 -653 -585 -44 -25 -57 -26 -82 -7 -18
13 -18 15 8 59 40 67 35 118 -16 175 -18 19 -21 34 -19 95 3 68 1 75 -28 107
-29 33 -35 46 -60 155 -15 65 -27 78 -66 65 -29 -9 -74 -18 -106 -19 -33 -2
-56 -82 -36 -127 6 -13 26 -28 45 -35 45 -15 54 -42 38 -111 -7 -32 -9 -61 -4
-69 10 -16 -11 -27 -53 -28 -18 -1 -31 6 -38 19 -20 38 -70 21 -70 -25 0 -20
94 -38 175 -33 74 5 74 5 86 -24 6 -16 10 -30 8 -31 -2 -1 -21 -11 -41 -21
-54 -27 -138 -109 -138 -134 0 -27 3 -29 85 -36 104 -10 105 -11 105 -59 0
-40 -3 -43 -45 -66 -25 -13 -48 -21 -51 -18 -3 3 -1 21 4 41 13 45 -4 66 -54
66 -22 0 -51 11 -77 28 -35 23 -86 51 -107 57 -37 12 -37 14 -20 83 10 37 25
86 35 110 17 42 17 77 -1 169 -5 28 -3 34 21 45 26 12 27 15 21 62 -3 28 -15
63 -26 78 -11 15 -20 32 -20 39 0 13 -38 77 -58 98 -10 10 -12 27 -8 56 6 34
3 45 -13 59 -30 27 -71 23 -99 -9 -20 -24 -23 -35 -18 -68 4 -22 16 -47 28
-56 19 -16 19 -18 4 -34 -29 -28 -46 -83 -40 -125 4 -32 1 -44 -20 -70 -22
-25 -25 -34 -16 -56 6 -16 17 -26 29 -26 16 0 22 -11 31 -54 6 -29 8 -68 5
-87 -3 -19 -10 -61 -16 -94 -14 -79 -4 -135 32 -185 35 -48 119 -185 119 -193
0 -3 -17 -11 -37 -17 -58 -19 -82 -37 -76 -58 4 -16 -10 -23 -94 -50 -97 -32
-299 -85 -358 -95 -268 -45 -349 -52 -595 -52 -248 1 -391 15 -610 60 -14 3
-36 7 -50 10 -118 22 -399 113 -538 174 -189 83 -438 220 -448 246 -3 7 6 48
20 91 13 44 32 106 41 139 10 33 25 85 35 115 10 30 25 80 34 110 8 30 54 183
101 340 48 157 88 292 90 300 2 8 25 85 50 170 26 85 148 493 271 905 123 413
231 770 238 795 25 79 40 135 38 143 -8 31 48 -32 260 -298 l243 -305 21 67
c11 38 19 78 17 91 -2 12 -62 98 -133 190 -72 92 -154 198 -183 235 -28 38
-58 75 -65 83 -26 27 -31 76 -30 290 0 118 -3 218 -6 222 -17 16 -21 -30 -21
-222 1 -113 -1 -206 -4 -206 -3 0 -15 13 -26 28 -17 23 -20 45 -22 155 -1 71
-4 131 -7 134 -14 14 -19 -12 -21 -102 0 -52 -4 -97 -7 -101 -10 -9 -36 37
-45 81 -5 22 -9 127 -8 233 0 105 -3 192 -7 192 -18 0 -21 -37 -22 -244 -1
-122 -4 -226 -8 -232 -4 -6 -9 -21 -12 -35 -2 -13 -25 -91 -49 -174 -136 -457
-268 -899 -337 -1130 -23 -77 -96 -320 -162 -540 -65 -220 -127 -427 -137
-460 -10 -33 -78 -260 -151 -505 -73 -245 -136 -449 -140 -453 -4 -4 -47 23
-97 62 -396 306 -724 728 -926 1191 -129 295 -219 638 -242 920 -4 41 -8 91
-11 110 -5 46 -5 351 1 415 13 151 16 182 20 205 2 14 7 42 10 63 13 90 18
118 41 217 100 424 268 786 534 1146 40 55 76 101 79 104 3 3 24 28 46 55 62
78 290 304 388 385 366 301 786 510 1252 622 72 17 132 33 134 34 6 5 -50 68
-73 81 -21 12 -98 18 -108 8z m2242 -5223 c0 -12 -3 -12 -15 -2 -8 7 -15 22
-15 34 1 21 1 21 15 2 8 -11 15 -26 15 -34z m72 -145 c-6 -22 -6 -22 -13 3
-12 43 -10 58 5 37 8 -10 11 -28 8 -40z m-39 -296 c7 -27 0 -31 -35 -19 l-31
11 24 13 c32 18 36 17 42 -5z m-209 -160 c6 -9 10 -33 11 -53 1 -33 -2 -38
-36 -53 -56 -26 -71 -18 -95 50 -12 33 -24 72 -28 87 l-6 26 73 -20 c39 -11
76 -28 81 -37z"/>
<path d="M4264 4434 c-130 -44 -130 -224 0 -268 67 -23 136 6 170 72 57 110
-52 236 -170 196z"/>
</g>
</svg>
