<svg id="Layer_1" data-name="Layer 1" xmlns="http://www.w3.org/2000/svg" viewBox="0 0 140.17 102.93"><defs><style>.cls-1{fill:#ffc21e;}</style></defs><title>team</title><path class="cls-1" d="M145.07,104.57c-.69.9-1.44,1.69-2.73,1.21s-1.39-1.53-1.38-2.69c0-5.2,0-10.41,0-15.61,0-2.82-1.12-4.31-3.81-5.09s-5.33-1.56-8-2.27a1.74,1.74,0,0,0-1.41.29c-1.41,1.29-2.77,2.64-4.06,4.06a2.51,2.51,0,0,0-.52,1.57c0,5.57,0,11.14,0,16.7a10.07,10.07,0,0,1,0,1.23,2.11,2.11,0,0,1-2.1,2,2,2,0,0,1-2-2c0-.72,0-1.45,0-2.18,0-5.21,0-10.41,0-15.61a3.29,3.29,0,0,0-.79-1.87c-.88-1-1.9-2-2.87-2.93-1.59-1.59-1.59-1.59-3.92-.64,2.68,2.81,3.1,6.25,3,9.91-.1,4.19,0,8.39,0,12.59,0,1.8-.77,2.8-2.1,2.78s-2-1-2-2.71c0-4.88,0-9.77,0-14.65a6.83,6.83,0,0,0-4.87-7L92.54,76.9l-3.07,4.6c-.81,1.21-1.59,2.44-2.43,3.63a4.2,4.2,0,0,1-6.62.67c-1-1-2-2-2.92-3.07l-.34.12c0,.46-.07.92-.07,1.38,0,6.21,0,12.41,0,18.62,0,.58.09,1.35-.22,1.71-.51.59-1.35,1.3-2,1.25s-1.32-.9-1.78-1.53c-.25-.34-.1-1-.1-1.48q0-9.24,0-18.47V82.88l-.5-.33c-.85,1-1.64,2-2.56,3-2.4,2.41-5.25,2.12-7.15-.69-1.75-2.6-3.48-5.22-5.29-7.93-4.7,1.74-9.4,3.33-14,5.22-2.64,1.1-3.75,3.48-3.77,6.32,0,4.79,0,9.58,0,14.37a10.29,10.29,0,0,1,0,1.36,1.89,1.89,0,0,1-1.82,1.74,1.85,1.85,0,0,1-2.08-1.41,5.76,5.76,0,0,1-.16-1.61q0-6.65,0-13.28a12.67,12.67,0,0,1,1.52-7.12c-1.82-1.5-1.91-1.56-3.5.12-3.38,3.56-7.31,4-10.4,2.48a12.7,12.7,0,0,1-3.57-2.7,2,2,0,0,0-2.9-.38c-1.6,1-3.32,1.71-5,2.53A4.62,4.62,0,0,0,9,89q0,6.92,0,13.83a9.91,9.91,0,0,1,0,1.09,2.08,2.08,0,0,1-2,2,2,2,0,0,1-2-2c-.06-1.82,0-3.65,0-5.48,0-3.14,0-6.29,0-9.44a8.57,8.57,0,0,1,5-8.14c1.65-.85,3.32-1.67,5.18-2.6-.49-.27-.84-.42-1.14-.63-1.69-1.22-3.46-2.36-5-3.71s-2-2.82-1.26-5.08C8.58,66,8.68,63,9,60c.36-3.35.2-6.79.9-10.06,2.69-12.6,17-18.08,27-10.47A18,18,0,0,1,44,52.63c.38,4.22.5,8.47.87,12.69a15.9,15.9,0,0,0,1,4.22,2.73,2.73,0,0,1-.49,3.27c-1.7,1.56-3.51,3-5.31,4.45a10.76,10.76,0,0,1-1.69.92,2.44,2.44,0,0,0,3,.4C45.1,77,48.9,75.69,52.65,74.29,54,73.8,55.22,73.48,56,71.9c.62-1.33,2.09-2.26,3.07-3.45a6.4,6.4,0,0,0,.76-1.79c0-.08,0-.18,0-.27a10.12,10.12,0,0,0-3-8.87C52.59,53.17,51,47.48,51,41.43A24.83,24.83,0,0,0,49.92,34a30.49,30.49,0,0,1-.35-16.49A19.29,19.29,0,0,1,67.91,3.05C78.17,3,88.43,3,98.7,3c1.76,0,2.53.75,2.53,2.49,0,7.39.14,14.78-.08,22.17-.08,2.68-1,5.33-1.56,8a16.31,16.31,0,0,0-.52,2.91c0,3.6,0,7.2-1.07,10.7a23.76,23.76,0,0,1-6.86,10.84,2.07,2.07,0,0,0-.88,2,.33.33,0,0,1,0,.14c-.55,3.72.3,6.9,3.52,9.17a.7.7,0,0,1,.27.3c.51,2,2.31,2.18,3.83,2.74,2.35.87,4.73,1.66,7.05,2.58a4.1,4.1,0,0,0,3.29.15,15.9,15.9,0,0,1,1.7-.51c2.6-.75,2.63-.75,2.5-3.4a2.26,2.26,0,0,0-.71-1.45,15.75,15.75,0,0,1-5.82-12.6,12.66,12.66,0,0,0-1.2-5.63c-3.37-7.34,1.91-16.5,10-17.45a59.73,59.73,0,0,1,6.83-.22c4.7,0,9.4,0,14.1,0,2.19,0,2.87.68,2.85,2.87,0,3.92,0,7.84-.23,11.76a19.9,19.9,0,0,1-1.16,3.9,12.63,12.63,0,0,0-.76,3.51c.2,5.74-1.57,10.52-6.11,14.27-.61.51-.46,2.09-.42,3.16,0,.34.78.79,1.28.95,2.39.74,4.8,1.41,7.22,2.08a8.66,8.66,0,0,1,6.55,6.64,1.2,1.2,0,0,0,.21.34ZM97.13,7.26a4.5,4.5,0,0,0-.46-.12C87,7.15,77.24,7,67.53,7.2a14.82,14.82,0,0,0-13.9,11.07,27.15,27.15,0,0,0,.81,16.4,12.07,12.07,0,0,1,.64,3.16A81.6,81.6,0,0,0,55.61,46a19.88,19.88,0,0,0,19,16.29A19.59,19.59,0,0,0,94.21,47.36c.71-3,.47-6.15.75-9.22a27.42,27.42,0,0,1,.7-3.7c.39-1.63,1.15-3.24,1.21-4.88.21-5.87.2-11.75.26-17.63C97.15,10.39,97.13,8.85,97.13,7.26Zm37.22,33H115.23a1.24,1.24,0,0,0-.27,0c-5.35.95-8.82,7.07-6.47,11.79A12.94,12.94,0,0,1,110,59a11.24,11.24,0,0,0,0,1.64,11.44,11.44,0,0,0,10.63,10.47A11,11,0,0,0,132,61.82a21.9,21.9,0,0,0,.19-4.36,8.74,8.74,0,0,1,1-4.45,9.21,9.21,0,0,0,1.12-3.61C134.46,46.35,134.35,43.3,134.35,40.21ZM13,57.71c2.2.64,2.43.94,2.58,3a11.13,11.13,0,0,0,21.7,2.64,3.34,3.34,0,0,0-.44-3.19c-2.88-4.28-7.16-6-12-6.75a2.68,2.68,0,0,0-2.85,1,16.73,16.73,0,0,1-1.8,1.87,2,2,0,1,1-2.95-2.81A45.73,45.73,0,0,1,20.71,50a3.33,3.33,0,0,1,2.06-.81,21.83,21.83,0,0,1,11.59,3.16,68.49,68.49,0,0,1,6,4.85,61,61,0,0,0-.7-6.22,13.39,13.39,0,0,0-12.68-10.9A13.17,13.17,0,0,0,14,50.27,60.51,60.51,0,0,0,13,57.71ZM86,63.83a24.3,24.3,0,0,1-22.1-.16c0,1.2,0,2.15,0,3.09a1.48,1.48,0,0,0,.51,1c3.51,2.44,7,4.83,10.59,7.25,2.93-2,5.69-4.11,8.67-5.84C85.89,67.92,86.68,66.34,86,63.83Zm1.84,7.42-9.25,6.33,5.14,5.15,4.8-7.21C90.06,73.22,90.06,73.22,87.83,71.25ZM60.08,73.37l6.34,9.5,5.2-5.18-9.48-6.48ZM22.27,74.92c-.37,2.26-.82,4.72,2.06,6.16A5.08,5.08,0,0,0,29.27,81c2.93-1.48,2.09-3.94,1.87-6.07Zm103.29,0h-9.07c.07.55-.08,1.49.32,2,1.28,1.52,2.77,2.87,4.3,4.41,1.24-1.28,2.31-2.54,3.54-3.6A2.48,2.48,0,0,0,125.56,74.9Zm-113-8.26c-.23.93-.58,2.24-.89,3.56a1.11,1.11,0,0,0,.12.85,15.09,15.09,0,0,0,6.55,4c-.32-1.21-.31-2.22-.8-2.82C16,70.22,14.21,68.42,12.58,66.64Zm28.15-.4c-.69,1.06-1.24,2.07-1.93,3a11.89,11.89,0,0,1-2.36,2.44c-1.27.86-1.22,1.91-1,3.25a14.82,14.82,0,0,0,6-3.63,1.22,1.22,0,0,0,.36-.93C41.5,69,41.12,67.7,40.73,66.24Z" transform="translate(-4.9 -3)"/><path class="cls-1" d="M136.3,97.27c0,2,0,4.1,0,6.16,0,1.56-.85,2.52-2.11,2.49s-2-1-2-2.45q0-6.24,0-12.46c0-1.48.83-2.36,2.09-2.33a2,2,0,0,1,2,2.29C136.32,93.07,136.3,95.17,136.3,97.27Z" transform="translate(-4.9 -3)"/><path class="cls-1" d="M17.79,98.83c0,1.59,0,3.18,0,4.77a2.06,2.06,0,1,1-4.09,0q0-4.9,0-9.83c0-1.48.81-2.36,2.06-2.35s2,.87,2,2.38C17.8,95.46,17.79,97.14,17.79,98.83Z" transform="translate(-4.9 -3)"/><path class="cls-1" d="M97.14,99.51c0-1.41,0-2.83,0-4.24a2,2,0,1,1,4.08-.06c0,2.83,0,5.65,0,8.48a2.05,2.05,0,1,1-4.08-.08C97.12,102.25,97.14,100.88,97.14,99.51Z" transform="translate(-4.9 -3)"/><path class="cls-1" d="M52.89,99.53c0,1.41,0,2.83,0,4.24a2,2,0,1,1-4.05,0q-.09-4.3,0-8.61a2,2,0,0,1,2-2.12c1.22,0,2,.8,2,2.22S52.9,98.12,52.89,99.53Z" transform="translate(-4.9 -3)"/><path class="cls-1" d="M61.69,26.6c0,1.57,0,3,0,4.48s-.76,2.37-2,2.35-2-.84-2-2.39-.05-3.1.06-4.65a4,4,0,0,1,3.44-3.86c7.25-1.07,14.51-1.39,21.7.45a19.69,19.69,0,0,1,8.45,4.26c1.32,1.18,1.54,2.29.68,3.31s-2.09.92-3.34-.19c-3.31-2.93-7.4-3.8-11.59-4.29A57.21,57.21,0,0,0,61.69,26.6Z" transform="translate(-4.9 -3)"/><path class="cls-1" d="M116.78,46.69c3.38.66,6.77,1.31,10.15,2a5.5,5.5,0,0,1,1.63.67,1.9,1.9,0,0,1,1,2.54,1.81,1.81,0,0,1-2.44,1.18c-4-1.62-8.24-1.85-12.47-2.07-1.45-.08-2.2-.89-2.15-2.13s.9-1.93,2.33-1.94c.64,0,1.28,0,1.91.07Z" transform="translate(-4.9 -3)"/></svg>